# xmcd
#
# Track frame offsets:
#	150
#	9552
#	21802
#	31205
#	42560
#	54645
#	64987
#	78625
#	89562
#	98462
#
# Disc length: 1456 seconds
#
# Revision: 1
# Processed by: cddbd v1.5.2PL0 Copyright (c) Steve Scherf et al.
# Submitted via: audiograbber 1.83.01
#
DISCID=7c05ae0a
DTITLE=Burl Ives - A Little Bitty Tear
DYEAR=1900
DGENRE=Oldies
TTITLE0=A Little Bitty Tear
TTITLE1=Call Me Mr. In Between
TTITLE2=Blue Tail Fly
TTITLE3=Goober Peas
TTITLE4=Funny Way Of Laughing
TTITLE5=My Gal Sal
TTITLE6=The Long Black Veil
TTITLE7=Pearly Shells
TTITLE8=Polly Wolly Doodle
TTITLE9=Waltzing Matilda
EXTD=
EXTT0=
EXTT1=
EXTT2=
EXTT3=
EXTT4=
EXTT5=
EXTT6=
EXTT7=
EXTT8=
EXTT9=
PLAYORDER=
